<svg height="46" viewBox="0 0 81 46" width="81" xmlns="http://www.w3.org/2000/svg"><path d="m66.7524.0001h14.257l-7.965 45.467h-14.257l-11.108-22.864-3.983 22.864h-1.13-8.758-17.266c-1.794 0-3.248-1.454-3.248-3.247 0-1.794 1.454-3.248 3.248-3.248h6.807c1.794 0 3.248-1.454 3.248-3.247 0-1.794-1.454-3.248-3.248-3.248h-.911c-1.793 0-3.248-1.455-3.248-3.248s1.455-3.248 3.248-3.248h7.899c1.793 0 3.247-1.454 3.247-3.248s-1.454-3.247-3.247-3.247h-22.327c-1.794 0-3.248-1.454-3.248-3.248s1.454-3.248 3.248-3.248h18.403c1.793 0 3.247-1.454 3.247-3.247 0-1.794-1.454-3.248-3.247-3.248h-12.854c-1.794 0-3.248-1.454-3.248-3.247 0-1.794 1.454-3.248 3.248-3.248h29.007 9.092l11.046 23.246zm-50.3027 29.3916c0 1.809-1.466 3.275-3.275 3.275h-9.741c-1.809 0-3.275-1.466-3.275-3.275 0-1.81 1.466-3.276 3.275-3.276h9.741c1.809 0 3.275 1.466 3.275 3.276z" fill="#303044" fill-rule="evenodd"/></svg>